<?xml version="1.0" standalone="no"?><!DOCTYPE svg PUBLIC "-//W3C//DTD SVG 1.1//EN" "http://www.w3.org/Graphics/SVG/1.1/DTD/svg11.dtd"><svg t="1743402000815" class="icon" viewBox="0 0 1024 1024" version="1.1" xmlns="http://www.w3.org/2000/svg" p-id="8160" xmlns:xlink="http://www.w3.org/1999/xlink" width="200" height="200"><path d="M113.950436 540.444444a79.928889 79.928889 0 0 1 26.737777 54.897778A81.92 81.92 0 0 1 135.568213 625.777778h11.662223a145.351111 145.351111 0 0 0 89.884444-38.115556 28.444444 28.444444 0 0 1-5.688889-11.946666 216.746667 216.746667 0 0 1-185.457778-190.862223h-1.422222a131.697778 131.697778 0 0 0-23.04 28.444445 146.773333 146.773333 0 0 0-18.773333 104.675555 142.222222 142.222222 0 0 0 6.257778 22.471111A79.644444 79.644444 0 0 1 57.061547 519.111111 79.928889 79.928889 0 0 1 113.950436 540.444444zM385.879324 134.257778a149.333333 149.333333 0 0 0-56.888888 22.471111 224.426667 224.426667 0 0 1 54.328888 26.737778 257.991111 257.991111 0 0 1 45.795556-50.631111 170.666667 170.666667 0 0 0-43.235556 1.422222z" fill="#20A0FF" p-id="8161"></path><path d="M209.239324 554.951111a112.071111 112.071111 0 0 1-44.088888-81.351111 110.08 110.08 0 0 1 64.853333-107.235556 142.222222 142.222222 0 0 0-150.186667-20.195555 44.657778 44.657778 0 0 1 2.275556 8.817778 28.444444 28.444444 0 0 1-9.102222 22.755555 199.111111 199.111111 0 0 0 3.413333 33.848889A214.471111 214.471111 0 0 0 102.857102 483.555556a200.533333 200.533333 0 0 0 106.382222 71.395555z" fill="#F0B428" p-id="8162"></path><path d="M76.403769 411.591111a199.111111 199.111111 0 0 1-3.413333-33.848889 28.444444 28.444444 0 0 1-11.377778 7.964445 196.551111 196.551111 0 0 0 39.537778 95.004444 221.866667 221.866667 0 0 1-24.746667-69.12z" fill="#20A0FF" p-id="8163"></path><path d="M100.865991 269.084444a191.431111 191.431111 0 0 0-23.04 59.448889 166.115556 166.115556 0 0 1 50.915556-11.377777 160.711111 160.711111 0 0 1 100.408889 28.444444 185.173333 185.173333 0 0 1-11.662223-54.613333 193.137778 193.137778 0 0 1 24.462223-106.666667c-5.688889 0-11.377778 0-17.066667 2.275556a181.191111 181.191111 0 0 0-124.017778 82.488888z" fill="#F0B428" p-id="8164"></path><path d="M233.985991 289.564444a182.897778 182.897778 0 0 0 19.057778 69.404445 106.666667 106.666667 0 0 1 16.213333-2.56 109.511111 109.511111 0 0 1 50.915556 9.671111 28.444444 28.444444 0 0 1 21.333333-16.213333v-10.524445a246.328889 246.328889 0 0 1 26.453333-127.146666 203.377778 203.377778 0 0 0-104.106666-28.444445 175.502222 175.502222 0 0 0-29.866667 105.813333z" fill="#F0B428" p-id="8165"></path><path d="M366.252658 212.195556s3.697778-7.68 7.68-14.506667A193.137778 193.137778 0 0 0 313.061547 170.666667a158.435556 158.435556 0 0 0-16.782223 17.066666 205.937778 205.937778 0 0 1 69.973334 24.462223z" fill="#20A0FF" p-id="8166"></path><path d="M856.350436 215.893333a157.297778 157.297778 0 0 0-53.76-22.755555 238.08 238.08 0 0 1 28.444444 62.577778 157.013333 157.013333 0 0 1 49.493333-11.662223h6.542223a154.453333 154.453333 0 0 0-30.72-28.16z" fill="#20A0FF" p-id="8167"></path><path d="M928.31488 544.426667h2.844444a142.222222 142.222222 0 0 0 79.36-71.68 131.413333 131.413333 0 0 0-68.266666-180.053334c-3.697778-1.706667-7.68-2.275556-11.662222-3.697777a157.297778 157.297778 0 0 1 4.835555 30.72 179.768889 179.768889 0 0 1-145.066667 189.155555 28.444444 28.444444 0 0 0 0 2.844445 130.275556 130.275556 0 0 0 38.4 28.444444l5.12 2.275556a116.337778 116.337778 0 0 0 13.937778 5.12l9.102222 2.275555a130.275556 130.275556 0 0 0 71.395556-5.404444z" fill="#F0B428" p-id="8168"></path><path d="M918.928213 319.715556a168.675556 168.675556 0 0 0-5.404444-32.142223 28.444444 28.444444 0 0 1-17.92-6.542222 147.342222 147.342222 0 0 0-56.888889 8.533333 152.177778 152.177778 0 0 1 2.275556 19.911112 248.604444 248.604444 0 0 1-54.613334 170.666666 28.444444 28.444444 0 0 1 5.404445 10.24 163.84 163.84 0 0 0 127.146666-170.666666z" fill="#F0B428" p-id="8169"></path><path d="M894.465991 281.031111a28.444444 28.444444 0 0 1-12.515555-20.48 138.524444 138.524444 0 0 0-46.648889 11.377778c0 5.688889 2.275556 11.662222 3.128889 17.635555a147.342222 147.342222 0 0 1 56.035555-8.533333z" fill="#20A0FF" p-id="8170"></path><path d="M531.230436 102.684444c-6.826667 0-13.653333 2.844444-20.195556 4.551112a51.484444 51.484444 0 0 1 0 6.542222 193.137778 193.137778 0 0 1 91.306667 153.6 191.146667 191.146667 0 0 1-17.635556 92.728889 28.444444 28.444444 0 0 1 9.102222 19.342222 28.444444 28.444444 0 0 1-6.257777 19.911111 164.977778 164.977778 0 0 1 14.222222 30.435556 157.013333 157.013333 0 0 1 26.168889-4.266667 164.693333 164.693333 0 0 1 122.88 45.795555 25.315556 25.315556 0 0 1 9.386666-2.275555 11.093333 11.093333 0 0 1 4.266667 0 59.448889 59.448889 0 0 1 3.982222-4.835556 227.555556 227.555556 0 0 0-11.946666-284.444444 28.444444 28.444444 0 0 1-13.937778-14.506667 221.013333 221.013333 0 0 0-33.28-26.737778 241.493333 241.493333 0 0 0-178.062222-35.84z" fill="#E63C78" p-id="8171"></path><path d="M481.452658 139.946667a28.444444 28.444444 0 0 1-21.617778-9.671111 234.382222 234.382222 0 0 0-103.537778 208.213333v10.24a160.142222 160.142222 0 0 1 191.715556 7.111111 28.444444 28.444444 0 0 1 13.084444-4.266667 36.124444 36.124444 0 0 1 7.964445 0 176.071111 176.071111 0 0 0-65.422223-221.582222 28.444444 28.444444 0 0 1-20.48 9.671111z" fill="#E63C78" p-id="8172"></path><path d="M823.070436 310.613333c0-4.551111 0-9.102222-1.422223-13.653333-3.982222 1.991111-7.111111 4.266667-10.808889 6.542222a227.555556 227.555556 0 0 1-42.666666 161.28 59.448889 59.448889 0 0 0-3.982222 4.835556 21.333333 21.333333 0 0 1 7.395555 0 233.244444 233.244444 0 0 0 51.484445-159.004445z" fill="#F0B428" p-id="8173"></path><path d="M810.839324 303.502222c3.413333-1.991111 6.826667-4.551111 10.524445-6.257778a233.244444 233.244444 0 0 0-40.675556-107.235555h-17.066666a227.555556 227.555556 0 0 1 45.511111 99.555555c0.853333 4.266667 1.137778 9.102222 1.706666 13.937778z" fill="#20A0FF" p-id="8174"></path><path d="M550.857102 382.008889a12.8 12.8 0 0 0 13.937778 12.515555 11.946667 11.946667 0 0 0 9.102222-4.266666 12.8 12.8 0 0 0 3.413334-9.671111 13.084444 13.084444 0 0 0-13.368889-12.515556 13.084444 13.084444 0 0 0-13.084445 13.937778zM910.39488 244.337778a13.653333 13.653333 0 0 0-9.102222 4.266666 12.8 12.8 0 0 0-3.413334 9.671112 13.368889 13.368889 0 0 0 27.875556-2.275556 14.791111 14.791111 0 0 0-4.551111-9.386667 14.506667 14.506667 0 0 0-8.817778-3.128889zM583.283769 580.835556a13.368889 13.368889 0 0 0 12.515555-14.222223 12.8 12.8 0 0 0-4.551111-9.102222 12.231111 12.231111 0 0 0-8.817777-3.413333 13.368889 13.368889 0 0 0-9.386667 4.551111 13.368889 13.368889 0 0 0 10.808889 22.186667zM480.599324 96.426667a13.368889 13.368889 0 0 0-12.515555 14.222222 13.084444 13.084444 0 0 0 13.937778 12.515555 13.084444 13.084444 0 0 0 12.515555-13.937777 13.368889 13.368889 0 0 0-13.084444-12.8zM762.768213 512a13.368889 13.368889 0 0 0 9.102223-4.551111 12.8 12.8 0 0 0 3.413333-9.671111 13.084444 13.084444 0 0 0-13.368889-12.515556 13.368889 13.368889 0 0 0 0 26.737778zM756.79488 154.737778a13.084444 13.084444 0 0 0 13.937778 12.515555 13.368889 13.368889 0 0 0 9.386666-4.551111 12.8 12.8 0 0 0 3.128889-9.671111 13.084444 13.084444 0 0 0-13.368889-12.515555 13.368889 13.368889 0 0 0-13.084444 14.222222zM51.372658 343.324444a13.368889 13.368889 0 0 0-12.515556 14.222223 12.8 12.8 0 0 0 4.551111 9.102222 13.084444 13.084444 0 0 0 9.671111 3.413333 13.653333 13.653333 0 0 0 12.515556-14.222222 13.653333 13.653333 0 0 0-13.368889-12.515556zM263.852658 153.884444a13.937778 13.937778 0 0 0 14.222222 12.8 13.368889 13.368889 0 0 0 12.515556-14.222222 13.653333 13.653333 0 0 0-13.368889-12.515555 13.084444 13.084444 0 0 0-9.386667 4.551111 14.222222 14.222222 0 0 0-3.982222 9.386666zM346.057102 365.226667a13.653333 13.653333 0 0 0-12.515555 14.222222 13.937778 13.937778 0 0 0 4.551111 9.102222 13.368889 13.368889 0 0 0 22.186666-10.808889 13.084444 13.084444 0 0 0-13.368888-12.515555zM261.292658 583.964444a13.368889 13.368889 0 0 0 12.515555-14.222222 13.653333 13.653333 0 0 0-13.368889-12.515555 13.937778 13.937778 0 0 0-9.102222 4.551111 13.084444 13.084444 0 0 0 0 18.773333 11.946667 11.946667 0 0 0 9.955556 3.413333zM387.017102 446.862222a13.653333 13.653333 0 0 0-12.515555 14.222222 13.368889 13.368889 0 0 0 14.222222 12.515556 12.231111 12.231111 0 0 0 9.102222-4.551111 11.946667 11.946667 0 0 0 3.413333-9.671111 12.8 12.8 0 0 0-4.551111-9.102222 12.231111 12.231111 0 0 0-8.817777-3.413334z" fill="#FFFFFF" p-id="8175"></path><path d="M540.617102 398.222222a28.444444 28.444444 0 0 1-5.688889-14.791111 30.435556 30.435556 0 0 1 3.697778-15.075555 142.222222 142.222222 0 0 0-98.133333-31.004445 146.204444 146.204444 0 0 0-69.688889 23.324445 28.444444 28.444444 0 0 1 6.826667 16.497777 28.444444 28.444444 0 0 1-8.533334 22.471111 213.902222 213.902222 0 0 0 13.653334 32.142223 23.608889 23.608889 0 0 1 4.266666 0 31.288889 31.288889 0 0 1 21.617778 7.395555 28.444444 28.444444 0 0 1 9.102222 17.066667h3.697778A175.786667 175.786667 0 0 0 540.617102 398.222222zM471.781547 615.253333h5.404444a154.453333 154.453333 0 0 1-2.56-15.928889 165.831111 165.831111 0 0 1 5.404445-48.924444 256 256 0 0 1-80.213334-61.724444 24.462222 24.462222 0 0 1-9.955555 2.56h-1.991111a19.911111 19.911111 0 0 1-3.982223 0 108.942222 108.942222 0 0 1-44.942222 67.982222 130.275556 130.275556 0 0 0 132.835556 56.035555zM565.079324 394.524444z" fill="#20A0FF" p-id="8176"></path><path d="M434.519324 499.484444A250.595556 250.595556 0 0 0 483.728213 533.048889a164.693333 164.693333 0 0 1 31.288889-52.906667 162.417778 162.417778 0 0 1 70.257778-45.795555 136.248889 136.248889 0 0 0-11.662222-25.315556 28.444444 28.444444 0 0 1-8.248889 2.275556h-1.991111a28.444444 28.444444 0 0 1-11.662222-2.56 192 192 0 0 1-130.844445 62.577777h-5.404444a49.493333 49.493333 0 0 1-3.128889 5.12 279.324444 279.324444 0 0 0 22.186666 23.04z" fill="#20A0FF" p-id="8177"></path><path d="M732.048213 500.622222a28.444444 28.444444 0 0 1 5.973334-18.773333 147.057778 147.057778 0 0 0-100.408889-39.822222h-8.817778a113.777778 113.777778 0 0 0-21.902222 3.413333 153.884444 153.884444 0 0 1 4.551111 28.444444 164.124444 164.124444 0 0 1-11.377778 69.973334l2.275556 1.422222a31.573333 31.573333 0 0 1 7.964444 12.231111 232.106667 232.106667 0 0 0 123.733333-48.924444 33.848889 33.848889 0 0 1-1.991111-7.964445zM580.723769 537.6h3.413333a145.635556 145.635556 0 0 0 10.524445-63.146667 137.102222 137.102222 0 0 0-3.697778-24.462222 146.488889 146.488889 0 0 0-63.146667 40.96 142.222222 142.222222 0 0 0-28.444444 48.64 225.28 225.28 0 0 0 56.888889 15.928889 28.444444 28.444444 0 0 1 4.835555-8.248889 28.444444 28.444444 0 0 1 19.626667-9.671111zM763.905991 528.782222h-1.991111a30.72 30.72 0 0 1-18.488889-6.826666 249.173333 249.173333 0 0 1-132.266667 51.768888 28.444444 28.444444 0 0 1-26.737777 23.608889h-1.991111a30.435556 30.435556 0 0 1-13.653334-3.697777 166.115556 166.115556 0 0 1-66.844444 43.804444 134.542222 134.542222 0 0 0 90.453333 75.946667 6.542222 6.542222 0 0 0 3.128889 0 152.462222 152.462222 0 0 0 113.777778-15.075556 139.662222 139.662222 0 0 0 71.111111-142.222222 170.666667 170.666667 0 0 0-9.955556-30.151111 56.888889 56.888889 0 0 1-6.542222 2.844444zM553.417102 572.017778a267.093333 267.093333 0 0 1-58.311111-15.644445 151.608889 151.608889 0 0 0-3.697778 40.96 165.262222 165.262222 0 0 0 2.56 16.497778 74.24 74.24 0 0 0 1.706667 7.68 144.213333 144.213333 0 0 0 60.871111-39.537778 31.288889 31.288889 0 0 1-3.128889-9.955555z" fill="#F0B428" p-id="8178"></path><path d="M369.950436 483.555556a30.151111 30.151111 0 0 1-10.524445-20.764445 28.444444 28.444444 0 0 1 7.964445-22.186667 85.333333 85.333333 0 0 0-16.782223-31.573333h-2.275555a30.151111 30.151111 0 0 1-19.911111-7.395555 28.444444 28.444444 0 0 1-9.102223-17.92 91.875556 91.875556 0 0 0-43.235555-11.093334h-5.688889a93.866667 93.866667 0 0 0-33.28 179.484445v-1.706667a30.72 30.72 0 0 1 21.617778-9.955556 28.444444 28.444444 0 0 1 28.444444 19.342223A94.151111 94.151111 0 0 0 369.950436 483.555556z" fill="#E63C78" p-id="8179"></path><path d="M123.905991 595.057778a63.146667 63.146667 0 0 0-62.862222-59.164445H57.061547a63.146667 63.146667 0 0 0-49.208889 28.444445 17.351111 17.351111 0 0 1-1.422222 4.551111 69.688889 69.688889 0 0 0 3.128888 48.355555A61.155556 61.155556 0 0 0 89.488213 654.222222a60.871111 60.871111 0 0 0 8.533334-4.835555 54.897778 54.897778 0 0 0 8.533333-7.68 64 64 0 0 0 17.351111-46.648889z" fill="#F0B428" p-id="8180"></path><path d="M440.208213 717.653333a13.368889 13.368889 0 0 0-9.102222 4.551111 11.946667 11.946667 0 0 0-3.413333 9.671112 13.084444 13.084444 0 0 0 13.937778 12.515555 13.368889 13.368889 0 0 0 12.515555-14.222222 13.084444 13.084444 0 0 0-13.084444-12.515556zM313.061547 770.56a13.653333 13.653333 0 0 0-12.515556 14.222222 12.8 12.8 0 0 0 4.551111 9.102222 13.084444 13.084444 0 0 0 7.964445 2.56 13.937778 13.937778 0 0 0 9.102222-4.551111 13.084444 13.084444 0 0 0 3.413333-9.671111 13.368889 13.368889 0 0 0-13.368889-12.515555zM399.817102 818.631111a13.084444 13.084444 0 0 0-12.515555 14.222222 12.515556 12.515556 0 0 0 4.266666 9.102223 15.36 15.36 0 0 0 9.671111 3.413333 13.368889 13.368889 0 0 0 12.515556-14.222222 13.084444 13.084444 0 0 0-13.368889-12.515556zM211.51488 900.551111a13.084444 13.084444 0 0 0 12.515556-13.937778 13.368889 13.368889 0 0 0-4.551112-9.386666 13.368889 13.368889 0 0 0-8.817777-3.128889 12.515556 12.515556 0 0 0-9.102223 4.266666 15.36 15.36 0 0 0-3.413333 9.671112 13.084444 13.084444 0 0 0 13.368889 12.515555zM213.221547 687.786667a13.084444 13.084444 0 0 0 13.937777 12.515555 13.368889 13.368889 0 0 0 12.515556-14.222222 13.084444 13.084444 0 0 0-11.946667-12.515556 13.368889 13.368889 0 0 0-14.506666 14.222223z" fill="#FFFFFF" p-id="8181"></path><path d="M102.857102 817.777778a101.546667 101.546667 0 0 1-5.404444-26.453334 110.648889 110.648889 0 0 1 38.684444-90.168888h-4.835555a62.008889 62.008889 0 0 0-25.031111 7.111111A78.506667 78.506667 0 0 0 85.505991 744.106667v1.422222a88.177778 88.177778 0 0 0 0 49.208889 62.008889 62.008889 0 0 0 3.128889 7.68 64.284444 64.284444 0 0 0 14.222222 15.36z" fill="#E63C78" p-id="8182"></path><path d="M143.817102 853.333333a98.133333 98.133333 0 0 0 43.804445 16.497778v-1.422222a28.444444 28.444444 0 0 1 4.835555-3.697778 137.955556 137.955556 0 0 1-2.275555-15.075555A110.364444 110.364444 0 0 1 227.728213 760.604444a79.644444 79.644444 0 0 1-15.075555-42.097777v-5.688889a30.151111 30.151111 0 0 1-15.075556-20.764445h-2.56A93.582222 93.582222 0 0 0 142.39488 851.342222z" fill="#20A0FF" p-id="8183"></path><path d="M443.905991 760.604444h-2.844444a28.444444 28.444444 0 0 1-29.866667-28.444444 25.884444 25.884444 0 0 1 3.128889-14.506667 67.982222 67.982222 0 0 0-44.373333-12.515555 19.342222 19.342222 0 0 1 0 3.982222 80.213333 80.213333 0 0 1-8.533334 40.675556 111.786667 111.786667 0 0 1 42.666667 53.191111 28.444444 28.444444 0 0 1 15.928889 7.395555 85.333333 85.333333 0 0 0 7.395555-6.826666 61.724444 61.724444 0 0 0 15.644445-42.382223z" fill="#20A0FF" p-id="8184"></path><path d="M387.301547 804.977778a92.444444 92.444444 0 0 0-34.417778-40.96l-1.991111 2.56a54.897778 54.897778 0 0 1-9.386667 8.817778 26.737778 26.737778 0 0 1 1.706667 6.826666 29.866667 29.866667 0 0 1-7.395556 21.617778 63.715556 63.715556 0 0 0 36.977778 19.626667 30.435556 30.435556 0 0 1 14.506667-18.488889zM298.839324 809.528889a33.564444 33.564444 0 0 1-5.404444-3.128889 32.142222 32.142222 0 0 1-8.248889-13.653333 76.8 76.8 0 0 1-46.364444-19.342223 93.297778 93.297778 0 0 0-31.573334 74.24v9.955556a30.151111 30.151111 0 0 1 21.617778 7.68 30.72 30.72 0 0 1 6.826667 9.102222 95.004444 95.004444 0 0 0 63.146666-64.853333z" fill="#E63C78" p-id="8185"></path><path d="M274.945991 923.875556a113.777778 113.777778 0 0 0 78.791111-7.68 87.324444 87.324444 0 0 0 18.773334-12.8 90.737778 90.737778 0 0 0 20.764444-42.951112 28.444444 28.444444 0 0 1-12.515556-5.973333 28.444444 28.444444 0 0 1-8.248888-13.937778 79.36 79.36 0 0 1-52.337778-28.444444 15.075556 15.075556 0 0 1-5.12 1.422222 110.364444 110.364444 0 0 1-74.808889 76.8 28.444444 28.444444 0 0 1-5.404445 13.937778 105.813333 105.813333 0 0 0 38.115556 18.488889zM216.065991 875.235556l3.413333 1.991111a13.368889 13.368889 0 0 0-3.413333-1.991111z" fill="#E63C78" p-id="8186"></path><path d="M256.172658 685.226667a110.364444 110.364444 0 0 1 58.595555 68.835555 31.004444 31.004444 0 0 1 17.92 6.826667 55.182222 55.182222 0 0 0 5.973334-5.688889 62.008889 62.008889 0 0 0 15.644444-45.511111 65.422222 65.422222 0 0 0-3.413333-16.497778 90.737778 90.737778 0 0 0-48.924445-30.72 80.497778 80.497778 0 0 0-51.484444 3.413333l-1.706667 1.706667a28.444444 28.444444 0 0 1 7.395556 17.635556zM230.572658 699.448889h1.706666zM251.905991 701.44a28.444444 28.444444 0 0 1-24.177778 15.36 62.577778 62.577778 0 0 0 56.888889 58.595556 30.435556 30.435556 0 0 1 13.937778-17.92 94.435556 94.435556 0 0 0-28.444444-44.088889 104.106667 104.106667 0 0 0-18.204445-11.946667zM236.261547 695.751111a10.808889 10.808889 0 0 1-3.982223 3.128889 10.808889 10.808889 0 0 0 3.982223-3.128889z" fill="#F0B428" p-id="8187"></path></svg>